<?xml version="1.0" encoding="utf-8"?><svg xmlns="http://www.w3.org/2000/svg" xmlns:xlink="http://www.w3.org/1999/xlink"><symbol viewBox="0 0 14 13.78" id="23123" xmlns="http://www.w3.org/2000/svg"><path d="M13.745 13.092c-.254.502-.763.752-1.272 1.003-.637.376-1.146.5-1.782.5-.891 0-1.782-.375-2.546-.626-.636-.25-1.145-.5-1.781-.751-1.782-1.128-3.819-3.133-4.837-4.762a11.386 11.386 0 01-.89-1.754C.381 5.825 0 5.073 0 4.072c0-.627.127-1.254.51-1.88.254-.501.508-1.003 1.017-1.253.382 0 1.018-.126 1.4-.126h.255c.254.126.382.502.509.752.254.627.636 1.128.89 1.754.255.251.51.502.51.752 0 .627-1.782 1.504-1.782 2.005 0 .25.255.626.382.877 1.018 1.754 2.29 3.007 4.073 4.01.254.125.636.375.89.375.51 0 1.4-1.754 2.037-1.754.254 0 .509.25.763.501.51.376 1.146.627 1.655 1.003.255.125.636.25.764.5v.251c.127.251 0 .877-.127 1.253z"/></symbol><symbol viewBox="0 0 11.07 16.7" id="Vector" xmlns="http://www.w3.org/2000/svg"><path d="M11.407 9.837l-8.46 6.74c-.808.641-1.998.065-1.998-.967V2.13c0-1.031 1.19-1.608 1.998-.966l8.46 6.74c.614.492.614 1.44 0 1.933z"/></symbol><symbol viewBox="0 0 24 24" id="bfwt" xmlns="http://www.w3.org/2000/svg"><path d="M21.676 12c0 5.344-4.332 9.676-9.676 9.676S2.324 17.344 2.324 12 6.656 2.324 12 2.324 21.676 6.656 21.676 12zm0 0"/><path d="M10.664 10.863H9.191v1.66h1.473v4.473h1.953V12.56h1.461l.305-1.696h-1.754V9.621c0-.582.473-1.05 1.05-1.05h.84V7.02h-1.816a2.03 2.03 0 00-2.031 2.023zm0 0"/></symbol><symbol viewBox="0 0 512 512" id="close" xmlns="http://www.w3.org/2000/svg"><path d="M498.344 407.68L348.16 255.787l151.893-151.893C508.587 95.36 512 85.12 512 74.88c0-10.24-3.413-20.48-11.947-27.307l-35.84-35.84c-15.36-15.36-40.96-15.36-56.32 0L256 163.627 104.106 11.733c-15.36-15.36-40.96-15.36-56.32 0l-35.84 35.84C5.12 54.4 0 64.64 0 74.88s5.12 20.48 11.947 29.013L163.84 255.787 11.946 407.68c-15.36 15.36-15.36 40.96 0 56.32l35.84 35.84c15.36 15.36 40.96 15.36 56.32 0l151.893-151.893L407.891 499.84c6.827 6.827 17.067 11.947 27.307 11.947 10.24 0 20.48-3.413 27.307-11.947l35.84-35.84c6.827-6.827 11.947-17.067 11.947-29.014-.001-10.24-3.414-20.48-11.948-27.306zm-22.184 32.427l-35.84 35.84c-3.413 3.413-5.12 3.413-8.534 0l-163.84-163.84c-1.706-3.413-6.827-5.12-11.946-5.12s-8.534 1.707-11.946 5.12l-163.84 163.84c-3.413 3.413-5.12 3.413-8.534 0l-35.84-35.84c-1.706-1.707-1.706-5.12 0-8.534l163.84-163.84c3.413-3.413 5.12-6.827 5.12-11.946 0-5.12-1.707-8.534-5.12-11.947L35.84 80c-1.706-1.706-1.706-3.413-1.706-5.12s0-3.413 1.706-3.413l35.84-35.84c3.413-3.413 5.12-3.413 8.534 0l163.84 163.84c6.827 6.827 17.067 6.827 23.893 0l163.84-163.84c3.413-3.413 5.12-3.413 8.534 0l35.84 35.84c1.706 1.706 1.706 3.413 1.706 3.413 0 1.706 0 3.413-1.707 3.413l-163.84 163.84c-6.827 6.827-6.827 17.067 0 23.893l163.84 163.84c1.707 1.707 1.707 3.413 1.707 3.413 0 3.414 0 5.121-1.707 6.828z"/></symbol><symbol viewBox="0 0 125 125" id="ellips1" xmlns="http://www.w3.org/2000/svg"><path fill-rule="evenodd" clip-rule="evenodd" d="M62.5.998c34.518 0 62.5 27.982 62.5 62.5 0 34.517-27.982 62.499-62.5 62.499S0 98.015 0 63.498C0 28.98 27.982.998 62.5.998z"/></symbol><symbol viewBox="0 0 125 125" id="ellips3" xmlns="http://www.w3.org/2000/svg"><path fill-rule="evenodd" clip-rule="evenodd" d="M62.5.998c34.518 0 62.5 27.982 62.5 62.5 0 34.517-27.982 62.499-62.5 62.499S0 98.015 0 63.498C0 28.98 27.982.998 62.5.998z"/></symbol><symbol viewBox="0 0 125 125" id="ellips4" xmlns="http://www.w3.org/2000/svg"><path fill-rule="evenodd" clip-rule="evenodd" d="M62.5.998c34.518 0 62.5 27.982 62.5 62.5 0 34.517-27.982 62.499-62.5 62.499S0 98.015 0 63.498C0 28.98 27.982.998 62.5.998z"/></symbol><symbol viewBox="0 0 24 24" id="fbbl" xmlns="http://www.w3.org/2000/svg"><path d="M24 12c0-6.628-5.372-12-12-12S0 5.372 0 12s5.372 12 12 12c.07 0 .14 0 .21-.005v-9.337H9.634v-3.005h2.578V9.441c0-2.564 1.566-3.961 3.853-3.961 1.097 0 2.04.08 2.311.117v2.681H16.8c-1.242 0-1.486.59-1.486 1.458v1.912h2.977l-.39 3.005h-2.587v8.883C20.33 22.096 24 17.48 24 12z"/></symbol><symbol viewBox="0 0 32 60" id="feat-1" xmlns="http://www.w3.org/2000/svg"><path d="M46.536 8H40V4H28v4h-6.536A3.468 3.468 0 0018 11.464v49.072A3.468 3.468 0 0021.464 64h25.072A3.468 3.468 0 0050 60.536V11.464A3.468 3.468 0 0046.536 8zM20 23h28v12H20V23zm0 14h28v12H20V37zM30 6h8v2h-8V6zm-8.536 4h25.072c.808 0 1.464.656 1.464 1.464V21H20v-9.536c0-.808.656-1.464 1.464-1.464zm25.072 52H21.464A1.465 1.465 0 0120 60.536V51h28v9.536c0 .808-.656 1.464-1.464 1.464z"/></symbol><symbol viewBox="0 0 42 42" id="gear_1" xmlns="http://www.w3.org/2000/svg"><g clip-path="url(#ajclip0)"><path d="M21 10.111c-6.004 0-10.889 4.884-10.889 10.889 0 6.004 4.885 10.889 10.889 10.889S31.889 27.004 31.889 21c0-6.005-4.885-10.889-10.889-10.889zm0 20.222c-5.147 0-9.333-4.186-9.333-9.333s4.186-9.333 9.333-9.333 9.333 4.186 9.333 9.333c0 5.146-4.186 9.333-9.333 9.333z"/><path d="M39.838 16.333h-1.57c-.4-1.487-.99-2.91-1.758-4.244l1.11-1.11a2.15 2.15 0 00.633-1.528c0-.578-.225-1.121-.633-1.53L34.078 4.38c-.816-.816-2.24-.818-3.059 0L29.91 5.489a17.776 17.776 0 00-4.243-1.757v-1.57C25.667.97 24.697 0 23.504 0h-5.008c-1.193 0-2.163.97-2.163 2.162v1.57c-1.486.4-2.909.99-4.244 1.758l-1.11-1.11c-.817-.818-2.241-.816-3.058 0L4.38 7.922a2.15 2.15 0 00-.633 1.53c0 .577.224 1.12.633 1.529l1.109 1.109a17.705 17.705 0 00-1.757 4.243h-1.57C.97 16.333 0 17.303 0 18.496v5.008c0 1.193.97 2.163 2.162 2.163h1.57c.4 1.486.99 2.909 1.758 4.244l-1.11 1.11a2.15 2.15 0 00-.633 1.528c0 .578.225 1.121.633 1.53l3.542 3.541c.816.818 2.241.819 3.059 0l1.109-1.109a17.798 17.798 0 004.244 1.758v1.57c0 1.192.97 2.162 2.162 2.162h5.008c1.193 0 2.163-.97 2.163-2.162v-1.57c1.486-.4 2.909-.99 4.244-1.758l1.11 1.11c.817.818 2.24.816 3.058 0l3.541-3.542a2.15 2.15 0 00.633-1.53 2.15 2.15 0 00-.633-1.529l-1.109-1.109a17.798 17.798 0 001.758-4.244h1.57c1.192 0 2.162-.97 2.162-2.163v-5.008a2.166 2.166 0 00-2.163-2.163zm.606 7.171a.607.607 0 01-.606.607h-2.794l-.14.601a16.245 16.245 0 01-2.032 4.909l-.327.524 1.975 1.975a.607.607 0 010 .859l-3.541 3.54a.607.607 0 01-.86 0l-1.974-1.974-.524.327a16.208 16.208 0 01-4.909 2.032l-.6.14v2.794a.607.607 0 01-.608.606h-5.008a.607.607 0 01-.607-.606v-2.794l-.601-.14a16.245 16.245 0 01-4.909-2.032l-.524-.327L9.88 36.52a.607.607 0 01-.859 0l-3.54-3.541a.607.607 0 010-.86l1.974-1.974-.327-.524a16.208 16.208 0 01-2.032-4.909l-.14-.6H2.162a.607.607 0 01-.606-.608v-5.008c0-.335.272-.607.606-.607h2.794l.14-.601a16.228 16.228 0 012.032-4.909l.327-.524L5.48 9.88a.607.607 0 010-.859l3.541-3.54a.607.607 0 01.86 0l1.974 1.974.524-.327a16.208 16.208 0 014.909-2.032l.6-.14V2.162c0-.334.273-.606.608-.606h5.008c.335 0 .607.272.607.606v2.794l.601.14a16.245 16.245 0 014.909 2.032l.524.327L32.12 5.48a.607.607 0 01.859 0l3.54 3.541a.607.607 0 010 .86l-1.974 1.974.327.524a16.19 16.19 0 012.032 4.909l.14.6h2.794c.334 0 .606.273.606.608v5.008z"/><path d="M21 13.222c-4.289 0-7.778 3.49-7.778 7.778 0 4.289 3.49 7.778 7.778 7.778 4.289 0 7.778-3.49 7.778-7.778 0-4.289-3.49-7.778-7.778-7.778zm0 14A6.23 6.23 0 0114.778 21 6.23 6.23 0 0121 14.778 6.23 6.23 0 0127.222 21 6.23 6.23 0 0121 27.222z"/></g><defs><clipPath id="ajclip0"><path d="M0 0h42v42H0z"/></clipPath></defs></symbol><symbol viewBox="0 0 24 24" id="instbl" xmlns="http://www.w3.org/2000/svg"><path d="M12 0c6.629 0 12 5.371 12 12s-5.371 12-12 12S0 18.629 0 12 5.371 0 12 0zM9.488 5.945C7.23 6.051 6.047 7.32 5.95 9.488a53.864 53.864 0 000 5.024c.098 2.168 1.281 3.437 3.54 3.543 1.644.074 3.378.074 5.023 0 2.168-.102 3.437-1.285 3.543-3.543a56.696 56.696 0 000-5.024c-.102-2.21-1.332-3.441-3.543-3.543a56.696 56.696 0 00-5.024 0zm4.973 1.098c1.64.074 2.422.855 2.496 2.496.074 1.61.074 3.313 0 4.922-.078 1.687-.898 2.422-2.496 2.496-1.61.074-3.313.074-4.922 0-1.598-.074-2.418-.809-2.496-2.496a54.427 54.427 0 010-4.922c.074-1.598.809-2.418 2.496-2.496a54.427 54.427 0 014.922 0zM12 14.031a2.032 2.032 0 010-4.062 2.032 2.032 0 010 4.062zm0-5.16A3.13 3.13 0 008.871 12 3.13 3.13 0 0012 15.129 3.13 3.13 0 0015.129 12 3.13 3.13 0 0012 8.871zm3.98-.121a.73.73 0 11-1.458.002.73.73 0 011.458-.002zm0 0" fill-rule="evenodd"/></symbol><symbol viewBox="0 0 24 24" id="inwh" xmlns="http://www.w3.org/2000/svg"><path d="M14.297 12A2.295 2.295 0 0112 14.297 2.295 2.295 0 019.703 12 2.295 2.295 0 0112 9.703 2.295 2.295 0 0114.297 12z"/><path d="M17.372 7.936a2.13 2.13 0 00-.516-.792 2.13 2.13 0 00-.792-.516c-.244-.094-.61-.206-1.28-.239-.726-.033-.947-.042-2.784-.042-1.842 0-2.058.005-2.784.042-.67.033-1.036.145-1.28.24-.3.112-.572.285-.792.515-.23.22-.403.492-.516.792-.094.244-.206.61-.239 1.28-.033.726-.042.942-.042 2.784 0 1.838.01 2.058.042 2.784.033.67.14 1.036.24 1.28.112.3.285.572.515.792.22.23.492.403.792.516.244.094.61.206 1.28.239.726.033.942.042 2.784.042 1.842 0 2.058-.005 2.784-.042.67-.033 1.036-.14 1.28-.24a2.273 2.273 0 001.308-1.307c.094-.244.206-.61.239-1.28.033-.726.042-.947.042-2.784 0-1.842-.005-2.058-.042-2.784-.033-.67-.145-1.036-.24-1.28zM12 15.539a3.539 3.539 0 110-7.078 3.539 3.539 0 010 7.078zm3.68-6.389a.826.826 0 010-1.65.826.826 0 010 1.65z"/><path d="M12 0C5.372 0 0 5.372 0 12s5.372 12 12 12 12-5.372 12-12S18.628 0 12 0zm6.848 14.84c-.032.732-.15 1.233-.318 1.674a3.514 3.514 0 01-2.016 2.016c-.436.168-.937.286-1.673.318-.736.033-.97.043-2.841.043-1.87 0-2.105-.01-2.84-.043-.732-.032-1.233-.15-1.674-.318a3.355 3.355 0 01-1.219-.797 3.355 3.355 0 01-.797-1.219c-.168-.436-.286-.937-.318-1.673-.033-.736-.043-.97-.043-2.841 0-1.87.01-2.105.043-2.84.032-.732.15-1.233.318-1.674.174-.46.446-.877.797-1.219.342-.351.76-.623 1.219-.797.44-.168.937-.286 1.673-.318.736-.033.97-.043 2.841-.043 1.87 0 2.105.01 2.84.043.732.032 1.233.15 1.674.318.46.174.877.446 1.219.797.351.342.623.76.797 1.219.168.44.286.937.318 1.673.033.736.043.97.043 2.841 0 1.87-.01 2.105-.043 2.84z"/></symbol><symbol viewBox="0 0 12.87 27" id="left" xmlns="http://www.w3.org/2000/svg"><path d="M14 28L1.914 15.914a2 2 0 010-2.828L14 1"/></symbol><symbol viewBox="0 0 39.42 39.35" id="main-1" xmlns="http://www.w3.org/2000/svg"><g clip-path="url(#anclip0)"><path d="M12.592.788C6.084.788.788 6.525.788 13.608a9.503 9.503 0 001.307 4.667c.393.67.73 1.372 1.006 2.098a1.32 1.32 0 01-.438 1.472 3.246 3.246 0 00-1.219 2.551 3.279 3.279 0 001.438 2.723c.325.22.522.584.53.976v5.482c0 3.616 2.647 6.558 5.901 6.558 3.255 0 5.902-2.942 5.902-6.558a9.222 9.222 0 013.214-7.03 16.61 16.61 0 005.967-12.971c0-7.05-5.295-12.788-11.804-12.788zm4.984 24.763a10.529 10.529 0 00-3.672 8.026c0 2.893-2.06 5.246-4.59 5.246-2.531 0-4.59-2.353-4.59-5.246v-5.482a2.54 2.54 0 00-1.073-2.04 1.975 1.975 0 01-.895-1.659 1.94 1.94 0 01.747-1.545 2.623 2.623 0 00.83-2.93 15.256 15.256 0 00-1.1-2.294A8.225 8.225 0 012.1 13.576C2.1 7.248 6.807 2.1 12.592 2.1c5.786 0 10.493 5.148 10.493 11.476a15.338 15.338 0 01-5.509 11.975z"/><path d="M12.592 4.067c-3.654 0-6.77 2.592-7.98 6.214a10.493 10.493 0 00-.546 3.325c0 .787 0 3.194 1.504 4.697a.656.656 0 00.927-.927 4.012 4.012 0 01-.993-2.144c.106-.007.21-.015.32-.015 3.01-.002 5.457 2.753 5.457 6.136 0 .314-.015.61-.04.9-.326.35-.673.678-1.04.984a7.815 7.815 0 00-2.855 6.405.656.656 0 101.312 0 6.51 6.51 0 012.39-5.401 8.993 8.993 0 003.512-7.478c0-4.105-3.09-7.45-6.886-7.45a6.34 6.34 0 00-1.298.138 7.102 7.102 0 016.216-4.072c3.978 0 7.214 3.69 7.214 8.226a11.955 11.955 0 01-4.225 9.293c-.09.078-.19.162-.3.253-1.304 1.084-4.019 3.344-4.652 9.042a.656.656 0 00.58.722.67.67 0 00.072.006.656.656 0 00.65-.583c.576-5.175 2.926-7.13 4.189-8.18.116-.096.223-.186.318-.268a13.235 13.235 0 004.68-10.285c0-5.26-3.825-9.538-8.526-9.538zm-4.918 6.558c3.074 0 5.574 2.754 5.574 6.138a8.377 8.377 0 01-.721 3.607c-.44-3.646-3.275-6.466-6.702-6.466-.152 0-.297.011-.444.021v-.32c0-.877.126-1.75.373-2.591a4.993 4.993 0 011.92-.389zm25.903 5.246a7.726 7.726 0 012.434-5.443.656.656 0 10-.933-.918 9.007 9.007 0 00-2.813 6.361 9.007 9.007 0 002.813 6.361.656.656 0 10.932-.918 7.727 7.727 0 01-2.433-5.443z"/><path d="M37.948 12.102a.656.656 0 00-.926.054 5.41 5.41 0 000 7.43.656.656 0 00.98-.872 4.1 4.1 0 010-5.686.656.656 0 00-.054-.926z"/><path d="M39.966 14.12a.656.656 0 00-.926-.048 2.29 2.29 0 000 3.598.656.656 0 10.878-.975 1.17 1.17 0 01-.44-.824 1.17 1.17 0 01.44-.824.656.656 0 00.048-.926zm-9.668 1.751c0-2.885 1.293-5.674 3.738-8.055a.657.657 0 10-.918-.94c-2.702 2.634-4.131 5.744-4.131 8.995 0 3.25 1.43 6.361 4.13 8.995a.657.657 0 00.919-.94c-2.445-2.381-3.738-5.17-3.738-8.055z"/><path d="M27.02 15.871c0-3.603 1.522-7.073 4.404-10.033a.657.657 0 00-.94-.918c-3.124 3.213-4.776 7-4.776 10.951 0 3.951 1.652 7.738 4.776 10.952a.657.657 0 00.94-.919c-2.882-2.96-4.405-6.43-4.405-10.033z"/></g><defs><clipPath id="anclip0"><path transform="translate(.788 .788)" d="M0 0h39.423v39.346H0z"/></clipPath></defs></symbol><symbol viewBox="0 0 18.29 37.85" id="main-2" xmlns="http://www.w3.org/2000/svg"><g clip-path="url(#aoclip0)"><path d="M27.031 4.73H13.969a2.618 2.618 0 00-2.615 2.616v29.462a2.618 2.618 0 002.615 2.615h13.062a2.618 2.618 0 002.615-2.615V7.346a2.618 2.618 0 00-2.615-2.615zm1.354 32.078c0 .746-.608 1.354-1.354 1.354H13.969a1.355 1.355 0 01-1.354-1.354V7.346c0-.746.608-1.354 1.354-1.354h13.062c.746 0 1.354.608 1.354 1.354v29.462z"/><path d="M23.97 1.577h-6.94a.63.63 0 00-.63.63v3.155c0 .348.283.63.63.63h6.94a.63.63 0 00.63-.63V2.208a.63.63 0 00-.63-.631zm-.631 3.154h-5.677V2.838h5.677v1.893zM25.132 18.9a.63.63 0 00-.532-.292h-3.785V12.93a.63.63 0 00-1.202-.267l-4.415 9.461a.63.63 0 00.571.898h3.785V28.7a.63.63 0 001.202.267l4.416-9.462a.631.631 0 00-.04-.605zm-5.578 2.862H16.76l2.794-5.988v5.988zm1.261 4.095v-5.988h2.794l-2.794 5.988z"/></g><defs><clipPath id="aoclip0"><path transform="translate(1.577 1.577)" d="M0 0h37.846v37.846H0z"/></clipPath></defs></symbol><symbol viewBox="0 0 21.45 37.85" id="main-3" xmlns="http://www.w3.org/2000/svg"><g clip-path="url(#apclip0)"><path d="M30.592 9.777H28.7V3.469c0-1.072-.82-1.892-1.892-1.892-1.073 0-1.893.82-1.893 1.892v6.308h-8.83V3.469c0-1.072-.82-1.892-1.893-1.892-1.072 0-1.892.82-1.892 1.892v6.308h-1.892c-.379 0-.631.252-.631.63v4.794a12.58 12.58 0 003.343 8.516c1.892 2.145 2.965 4.92 2.965 7.758v1.64a3.123 3.123 0 003.154 3.154h.63v2.523c0 .379.253.631.631.631s.63-.252.63-.63v-2.524h.632a3.123 3.123 0 003.153-3.154v-1.577c0-2.901 1.01-5.613 2.965-7.758a12.737 12.737 0 003.343-8.578v-4.794c0-.379-.252-.631-.63-.631zm-4.415-6.308c0-.378.252-.63.63-.63.38 0 .631.252.631.63v6.308h-1.261V3.469zm-12.615 0c0-.315.252-.63.63-.63.379 0 .631.252.631.63v6.308h-1.262V3.469zm16.4 11.67c0 2.901-1.01 5.613-2.965 7.758a12.737 12.737 0 00-3.343 8.578v1.64c0 1.073-.82 1.893-1.892 1.893h-2.524a1.858 1.858 0 01-1.892-1.893v-1.577c0-3.153-1.198-6.244-3.343-8.578-1.892-2.145-2.964-4.92-2.964-7.758v-4.163h18.923v4.1z"/><path d="M23.023 17.977h-3.532l3.343-3.343a.61.61 0 000-.883.61.61 0 00-.883 0l-4.416 4.415c-.189.19-.252.442-.126.694.063.252.316.378.568.378h3.532l-3.343 3.344a.61.61 0 000 .883.573.573 0 00.442.189.57.57 0 00.441-.19l4.416-4.415c.189-.189.252-.441.126-.694-.063-.252-.316-.378-.568-.378z"/></g><defs><clipPath id="apclip0"><path transform="translate(1.577 1.577)" d="M0 0h37.846v37.846H0z"/></clipPath></defs></symbol><symbol viewBox="0 0 58 73" id="marker" xmlns="http://www.w3.org/2000/svg"><path d="M29 0C18.913 0 0 7.684 0 29.456S29 73 29 73s29-21.772 29-43.544S39.087 0 29 0z"/><g clip-path="url(#aqclip0)"><path d="M29 33.81c2.518 0 4.579-2.074 4.579-4.61 0-2.536-2.06-4.61-4.579-4.61-2.518 0-4.579 2.074-4.579 4.61 0 2.536 2.06 4.61 4.579 4.61zm0-19.979a15.39 15.39 0 00-4.579.692v8.53c3.358-2.536 8.166-1.845 10.684 1.536 2.519 3.382 1.832 8.223-1.526 10.758-3.358 2.536-8.166 1.844-10.684-1.537a7.598 7.598 0 01-1.527-4.61V15.906c-7.326 4.227-9.768 13.601-5.57 20.978 4.197 7.377 13.507 9.836 20.834 5.61 7.326-4.227 9.768-13.601 5.57-20.978-2.67-4.764-7.707-7.684-13.202-7.684z"/></g><defs><clipPath id="aqclip0"><path transform="translate(13.737 13.832)" d="M0 0h30.526v30.737H0z"/></clipPath></defs></symbol><symbol viewBox="0 0 11.07 16.7" id="play" xmlns="http://www.w3.org/2000/svg"><path d="M11.407 9.837l-8.46 6.74c-.808.641-1.998.065-1.998-.967V2.13c0-1.031 1.19-1.608 1.998-.966l8.46 6.74c.614.492.614 1.44 0 1.933z"/></symbol><symbol viewBox="0 0 12.87 27" id="right" xmlns="http://www.w3.org/2000/svg"><path d="M5 6l12.086 12.086a2 2 0 010 2.828L5 33"/></symbol><symbol viewBox="0 0 12.87 27" id="slider1" xmlns="http://www.w3.org/2000/svg"><path d="M14 28L1.914 15.914a2 2 0 010-2.828L14 1"/></symbol><symbol viewBox="0 0 52.03 46.15" id="sound_1" xmlns="http://www.w3.org/2000/svg"><g clip-path="url(#auclip0)"><path d="M28.404 3.413a3.029 3.029 0 00-3.09.044.929.929 0 00-.13.093l-13.55 11.463H1a1 1 0 00-1 1v19a1.002 1.002 0 001 1l10.61-.005 13.543 12.44c.05.046.104.086.161.12a3.055 3.055 0 001.582.446 3.07 3.07 0 001.508-.402A3.122 3.122 0 0030 45.857V6.169a3.125 3.125 0 00-1.596-2.756zM28 45.857c0 .431-.217.81-.579 1.015a1.049 1.049 0 01-1 .026L13 34.569v-4.556a1 1 0 10-2 0v3.996l-9 .004v-17h9v4a1 1 0 102 0v-4.536l13.405-11.34c.461-.242.86-.07 1.016.018.362.205.579.584.579 1.014v39.688zM38.797 7.066a1.002 1.002 0 00-.643 1.895 17.48 17.48 0 0111.872 16.553 17.492 17.492 0 01-11.849 16.554 1 1 0 00.646 1.893 19.489 19.489 0 0013.202-18.446A19.478 19.478 0 0038.797 7.066z"/><path d="M43.026 25.513c0-5.972-4.009-11.302-9.749-12.962a1 1 0 00-.554 1.922c4.889 1.413 8.304 5.953 8.304 11.04 0 5.087-3.415 9.627-8.304 11.04a1 1 0 00.554 1.922c5.741-1.66 9.749-6.99 9.749-12.962z"/></g><defs><clipPath id="auclip0"><path d="M0 0h52.026v52.026H0z"/></clipPath></defs></symbol><symbol viewBox="0 0 14 18" id="stopvideoicon" xmlns="http://www.w3.org/2000/svg"><path d="M7.5 4A1.5 1.5 0 006 5.5v13A1.5 1.5 0 007.5 20h1a1.5 1.5 0 001.5-1.5v-13A1.5 1.5 0 008.5 4h-1zm0-1h1A2.5 2.5 0 0111 5.5v13A2.5 2.5 0 018.5 21h-1A2.5 2.5 0 015 18.5v-13A2.5 2.5 0 017.5 3zm8 0h1A2.5 2.5 0 0119 5.5v13a2.5 2.5 0 01-2.5 2.5h-1a2.5 2.5 0 01-2.5-2.5v-13A2.5 2.5 0 0115.5 3zm0 1A1.5 1.5 0 0014 5.5v13a1.5 1.5 0 001.5 1.5h1a1.5 1.5 0 001.5-1.5v-13A1.5 1.5 0 0016.5 4h-1z"/></symbol><symbol viewBox="0 0 7.79 6.75" id="team__poligon-down" xmlns="http://www.w3.org/2000/svg"><path d="M4.5 7L.603.25h7.794L4.5 7z"/></symbol><symbol viewBox="0 0 7.79 6.75" id="team__poligon-up" xmlns="http://www.w3.org/2000/svg"><path d="M4 .5l3.897 6.75H.103L4 .5z"/></symbol><symbol viewBox="0 0 24 24" id="tgbl" xmlns="http://www.w3.org/2000/svg"><path d="M12 .023C18.613.023 23.977 5.387 23.977 12S18.613 23.977 12 23.977.023 18.613.023 12 5.387.023 12 .023zm5.535 7.532l-1.75 8.832s-.246.61-.918.316l-4.058-3.105c.543-.493 4.777-4.297 4.96-4.47.29-.269.11-.425-.222-.226l-6.254 3.973-2.41-.813s-.38-.136-.418-.43c-.035-.292.43-.452.43-.452l9.832-3.856s.808-.355.808.23zm0 0" fill-rule="evenodd"/></symbol><symbol viewBox="0 0 24 24" id="tgwh" xmlns="http://www.w3.org/2000/svg"><path d="M12 24c6.628 0 12-5.372 12-12S18.628 0 12 0 0 5.372 0 12s5.372 12 12 12zM5.49 11.742L17.061 7.28c.54-.192 1.008.13.83.942l-1.969 9.281c-.145.656-.539.82-1.082.506l-3-2.212-1.449 1.392c-.16.16-.295.295-.604.295l.21-3.051 5.565-5.02c.243-.211-.057-.333-.376-.122l-6.871 4.326-2.963-.923c-.642-.207-.656-.642.136-.952z"/></symbol><symbol viewBox="0 0 56.42 60" id="time_1" xmlns="http://www.w3.org/2000/svg"><path d="M31.634 37.989a3.558 3.558 0 002.606-1.459l9.363-12.944a1 1 0 00-1.397-1.397L29.26 31.555a3.557 3.557 0 00-1.456 2.604 3.56 3.56 0 001.033 2.797 3.554 3.554 0 002.797 1.033zm-1.836-3.674a1.56 1.56 0 01.637-1.142l7.897-5.713-5.711 7.895a1.565 1.565 0 01-2.371.187 1.564 1.564 0 01-.452-1.227z"/><path d="M54.034 19.564c-.01-.021-.01-.043-.021-.064-.012-.02-.031-.031-.044-.05a27.185 27.185 0 00-3.565-4.809l2.148-2.147 1.414 1.414 4.242-4.243-4.242-4.242-4.243 4.242 1.415 1.415-2.148 2.147a27.154 27.154 0 00-4.809-3.566c-.019-.013-.03-.032-.05-.044-.021-.012-.043-.011-.064-.022a26.81 26.81 0 00-10.273-3.404V5h1.5c1.379 0 2.5-1.121 2.5-2.5S36.672 0 35.293 0h-9a2.502 2.502 0 00-2.5 2.5c0 1.379 1.121 2.5 2.5 2.5h1.5v1.156c-1.08.115-2.158.291-3.224.535a1 1 0 10.447 1.949 25.43 25.43 0 012.78-.477l1.073-.083c.328-.025.63-.043.924-.057V10a1 1 0 102 0V8.03a24.805 24.805 0 0110.456 2.845l-.986 1.707a1 1 0 001.732 1l.983-1.703a25.194 25.194 0 017.772 7.772l-1.703.983a1 1 0 001.002 1.732l1.707-.986a24.82 24.82 0 012.849 10.619H53.63a1 1 0 100 2h1.975a24.82 24.82 0 01-2.849 10.619l-1.707-.986a1 1 0 00-1 1.732l1.703.983a25.194 25.194 0 01-7.772 7.772l-.983-1.703a.998.998 0 00-1.366-.366.999.999 0 00-.366 1.366l.986 1.707a24.805 24.805 0 01-10.456 2.845V56a1 1 0 10-2 0v1.976a25.235 25.235 0 01-4.776-.617.996.996 0 00-1.198.751 1 1 0 00.751 1.198c1.996.46 4.035.692 6.058.692.049 0 .096-.003.145-.004.007 0 .012.004.018.004.008 0 .015-.005.023-.005a26.825 26.825 0 0013.219-3.573c.031-.014.064-.021.094-.039.02-.012.031-.031.05-.044a27.197 27.197 0 009.773-9.761c.019-.027.043-.048.06-.078.012-.021.011-.043.021-.064A26.808 26.808 0 0057.63 33c0-4.89-1.313-9.476-3.596-13.436zm-.069-11.313l1.414 1.414-1.414 1.415-1.415-1.415 1.415-1.414zm-24.172-2.23V3h-3.5a.501.501 0 01-.5-.5c0-.275.225-.5.5-.5h9c.275 0 .5.225.5.5s-.225.5-.5.5h-3.5v3.021c-.348-.014-.68-.021-1-.021l-.088.002L30.63 6c-.164 0-.328.011-.492.014-.116.003-.225.002-.345.007zm-8 7.979h-5a1 1 0 100 2h5a1 1 0 100-2zm0 7h-10a1 1 0 100 2h10a1 1 0 100-2zm0 7h-15a1 1 0 100 2h15a1 1 0 100-2zm0 7h-19a1 1 0 100 2h19a1 1 0 100-2zm0 7h-13a1 1 0 100 2h13a1 1 0 100-2zm0 7h-7a1 1 0 100 2h7a1 1 0 100-2z"/></symbol><symbol viewBox="0 0 24 24" id="vkbl" xmlns="http://www.w3.org/2000/svg"><path d="M12 0C5.371 0 0 5.371 0 12s5.371 12 12 12 12-5.371 12-12S18.629 0 12 0zm6.39 16.074h-1.519c-.336 0-.652-.152-.86-.414-.456-.574-1.355-1.59-2.3-2.027a.367.367 0 00-.348.023.363.363 0 00-.164.305v1.504a.61.61 0 01-.61.61h-.702c-.918 0-2.887-.56-4.461-2.848-1.336-1.95-1.934-3.461-2.281-4.688a.48.48 0 01.464-.613h1.54c.316 0 .593.207.683.511.29.958 1.031 3.024 2.34 4.051a.269.269 0 00.289.032.263.263 0 00.152-.243V9.863c0-.476-.207-.953-.531-1.324a.365.365 0 01-.055-.394.368.368 0 01.336-.22h2.375c.254 0 .461.208.461.462v3.25c0 .097.051.183.137.226a.25.25 0 00.266-.015c.437-.313.812-.77 1.152-1.286.434-.648.96-1.718 1.226-2.277a.631.631 0 01.57-.36h1.68a.41.41 0 01.348.196.4.4 0 01.02.402c-.422.848-1.25 2.41-2.028 3.325a.65.65 0 00.078.914c.508.433 1.297 1.234 2.149 2.566a.484.484 0 01-.406.746zm0 0"/></symbol><symbol viewBox="0 0 24 24" id="vkwh" xmlns="http://www.w3.org/2000/svg"><path d="M12 0C5.374 0 0 5.374 0 12s5.374 12 12 12 12-5.374 12-12S18.626 0 12 0zm6.086 13.3c.564.54 1.153 1.056 1.644 1.67.22.27.442.54.589.858.22.442.025.933-.368.957h-2.454c-.638.05-1.129-.196-1.57-.638a20.431 20.431 0 01-.982-1.08 1.694 1.694 0 00-.442-.392c-.344-.221-.638-.147-.81.196-.196.368-.245.76-.27 1.153-.024.59-.196.737-.785.761-1.252.05-2.43-.122-3.51-.76-.956-.565-1.717-1.326-2.355-2.209-1.276-1.718-2.233-3.607-3.117-5.546-.196-.442-.049-.663.442-.687a39.29 39.29 0 012.405 0c.32 0 .54.196.663.49.441 1.056.957 2.086 1.62 3.019.171.245.367.49.613.687.294.197.49.123.638-.196.073-.197.122-.417.147-.638a8.322 8.322 0 00-.049-2.209c-.074-.49-.319-.785-.785-.883-.246-.05-.197-.123-.098-.27.196-.221.392-.368.76-.368h2.773c.442.098.54.27.59.711v3.092c0 .172.073.688.392.786.245.073.417-.123.564-.27.663-.712 1.13-1.546 1.57-2.405.197-.393.344-.785.516-1.178.123-.295.295-.442.638-.442h2.675a.92.92 0 01.245.025c.442.073.565.27.442.711-.22.688-.638 1.276-1.055 1.84-.442.614-.933 1.203-1.374 1.841-.442.59-.417.884.098 1.375z"/></symbol><symbol viewBox="0 0 12.83 16.7" id="volume" xmlns="http://www.w3.org/2000/svg"><path d="M11.188 1.174L5.016 6.082a3.132 3.132 0 00-1.497-.372A3.158 3.158 0 00.36 8.87a3.158 3.158 0 003.16 3.161c.54 0 1.05-.139 1.497-.371l6.172 4.917c.809.642 1.999.065 1.999-.967V2.131c0-1.032-1.19-1.608-1.999-.957z"/></symbol></svg>